<?xml version="1.0" encoding="UTF-8"?>
<!DOCTYPE svg PUBLIC "-//W3C//DTD SVG 1.1//EN" "http://www.w3.org/Graphics/SVG/1.1/DTD/svg11.dtd">
<!-- Creator: CorelDRAW X6 -->
<svg xmlns="http://www.w3.org/2000/svg" xml:space="preserve" width="43.3492mm" height="43.3492mm" version="1.1" style="shape-rendering:geometricPrecision; text-rendering:geometricPrecision; image-rendering:optimizeQuality; fill-rule:evenodd; clip-rule:evenodd"
viewBox="0 0 4335 4335"
 xmlns:xlink="http://www.w3.org/1999/xlink">
 <defs>
  <style type="text/css">
   <![CDATA[
    .fil0 {fill:rgba(128, 94, 225, 1)}
   ]]>
  </style>
 </defs>
 <g id="Layer_x0020_1">
  <metadata id="CorelCorpID_0Corel-Layer"/>
  <path class="fil0" d="M2167 68c1155,0 2091,936 2091,2091 0,1155 -936,2091 -2091,2091 -1155,0 -2091,-936 -2091,-2091 0,-1155 936,-2091 2091,-2091zm600 1383c0,0 -387,-379 -549,-403l-51 -8 -51 8c-161,24 -549,403 -549,403 0,0 -355,-573 -323,-710 50,-212 208,-299 399,-299l244 0 559 0 244 0c191,0 350,87 399,299 32,137 -323,710 -323,710zm-600 -436c173,-18 502,-71 624,-217 169,-202 16,-242 -194,-250 -106,-4 -282,-6 -431,-7 -148,1 -325,3 -431,7 -210,8 -363,48 -194,250 122,146 451,199 624,217zm-3 228l5 0 132 0c67,0 122,55 122,122l0 116c0,134 -110,244 -244,244l-10 0 -5 0 -10 0c-134,0 -244,-110 -244,-244l0 -116c0,-67 55,-122 122,-122l132 0zm5 2718l0 0c95,-10 221,-425 257,-518 42,-131 94,-365 42,-634l0 0c-65,-332 -155,-794 -172,-875 -27,-130 -116,-137 -116,-137l-10 0 -5 0 -10 0c0,0 -89,7 -116,137 -17,82 -107,543 -172,875l0 0c-52,268 -1,503 42,634 36,93 162,508 257,518l0 0c1,0 2,0 3,0 1,0 2,0 3,0z"/>
 </g>
</svg>
